<mxfile host="app.diagrams.net" modified="2023-07-14T09:32:08.043Z" agent="Mozilla/5.0 (Windows NT 10.0; Win64; x64) AppleWebKit/537.36 (KHTML, like Gecko) Chrome/114.0.0.0 Safari/537.36" version="21.3.8" etag="hjKEe0F7HQPy5pFSnDQP" type="github">
  <diagram name="Page-1" id="h2vBljEWlXUXhZdcX8Yx">
    <mxGraphModel>
      <root>
        <mxCell id="0" />
        <mxCell id="1" parent="0" />
      </root>
    </mxGraphModel>
  </diagram>
</mxfile>
